<svg version="1.1" xmlns="http://www.w3.org/2000/svg" viewBox="0 0 796.4796073686332 359.34765625" width="1592.9592147372664" height="718.6953125"><!-- svg-source:excalidraw --><metadata><!-- payload-type:application/vnd.excalidraw+json --><!-- payload-version:2 --><!-- payload-start -->eyJ2ZXJzaW9uIjoiMSIsImVuY29kaW5nIjoiYnN0cmluZyIsImNvbXByZXNzZWQiOnRydWUsImVuY29kZWQiOiJ4nO1aW2/byFx1MDAxNX73rzDU15g790ve5FtsXHUwMDA3TrK2N3FSLFxmWqIlWlx1MDAxNMmQVGR7XHUwMDExoCiKbVx1MDAxZVx1MDAxNptgUWBcdTAwMTftYoH2tYXbXHUwMDAyfWlf9s/UTvIvOiPZJEVStCSz3jyIXHUwMDAxXHUwMDAyeThcdTAwMWOeOXO+7ztzhl8tLC7WolPfqt1frFknXHLTsZuB2a/d0+2vrCC0PVfdQoO/Q69cdTAwMTc0XHUwMDA2PdtR5If3P/vM9H2jZUeHntcxXHUwMDFhXnf4mOVYXcuNQtXx1+rvxcWvXHUwMDA2/6s7dlM/vNHxn625zCHt9Z2NV1x1MDAxNPRcdTAwMGaft/3Bo4NO19ZcdTAwMDRWIzLdlmMlt05UO8bEwEhAROPmU9VcZlx1MDAwNTMwplx1MDAxMvOkvW83o7a+J4VBoaRcdTAwMThcIlwi9cXjLm3LbrUj1YcgXHUwMDAzMlx1MDAwMClLjTt8+/1FXHUwMDEwt4RR4HWsXHUwMDE1z/FcdTAwMDJt4q+gpf8lXHUwMDA2XHUwMDFlmo1OK/B6bjPuXHUwMDEzXHUwMDA1plx1MDAxYvpmoDyS9DuyXHUwMDFkZzc6XHUwMDFkjK7cqpxey7zj2ZXtKNM+7in10lbbtULtdVx1MDAxOLd6vtmwo4F/QDJcdTAwMGJtob/ZXHUwMDFjLNCXiU2B2bU29VxuuT3HiZttt2lpv9dMMPI2t3n1tuvVTZZcdTAwMGVftbxObLcsPTClhHHAXHUwMDAxjm8kIUZhtvGR51x1MDAwZaJcclx1MDAxM4q45FQmNoWrKsiiwZhHplx1MDAxM1rJXHUwMDAyaMPWslx1MDAwMZhcdTAwMGXCkVx1MDAxOIusk2RVUiG6t2SxXHUwMDA3qytcdTAwMGb8x4dcdTAwMDDt7pD2Jtl9Wov7vb5XPOzw4Zc2fPjoKVxie90nT1x1MDAxZOdANvxOrzX6luv3m0Hg9SdcdTAwMWT3wPS2t+lcdTAwMWU/fnLUXFzbr7e8XHUwMDBlWD6cbNyrX8li9/ymOfRcdTAwMWbkXFytXG6mSFCSrItju51sJDheo5O4fCFlcFx1MDAwNuDF3stcdTAwMDF8xPlDbFx1MDAxM2xQwYVcdTAwMDQsXHUwMDBib0lcZplcdTAwMDNoXGZwXHUwMDAx8oieXHUwMDAzeVx1MDAxY5BhMZBHel8hViDCJYEp7KVcdTAwMTCLxiFcdTAwMTZCKCAhgvBZIFtcdTAwMTKlhFEu0Fx1MDAxNFGaXHUwMDA0nVx1MDAwZTY1+Y/fn3/8y1x1MDAwZlx1MDAxN2++vvzp3cV331xcvP3h8k//unz79sPP/0itqudGu/aZnlxuXHUwMDAyI63rZtd29DLQkZHrjt3SLqk11CSsoJZ2TGQrVY07dO1mMy1pXHI1qGm7VrA5iTZ6gd2yXdPZm2Y2Zi/ydqxwOJ8o6Flp/1lcdTAwMWLXeIFcdTAwMDaiJaDuLu8j9OLFq/Zq+Mh3+Vx1MDAxNj+DYn1i1aZcdTAwMTBcdTAwMTlcYmnqz1xuN5LQgFxiXHUwMDAzwsSM0o3nQFx1MDAxZlx1MDAwM3Rya8WGXHUwMDE4QsJcdTAwMTTsXG7wXHUwMDBmKc+2Xlx1MDAxM1x1MDAwMGJQrTWAM+F/Nsk+XCLNXHUwMDFlsp8z5NXXXHUwMDFlLq+Em63+kn1cdTAwMDfSWjpu9OBx/WS5s7rNjvGzfcuHS2avUZlkU4AoTYN5dsku9t5cdTAwMDSSTVx1MDAxMTSIyKB3iGtWhuu5Yk9cdTAwMDNkOrliQ0CZYkxQhFhcdTAwMDTYOMRcdTAwMTKJoGRcdTAwMTjOXHUwMDAy2DLBXHUwMDE2XHUwMDFjTZVW5lx1MDAwNHuoabHEXb55d/nj3z6c//n9+fefgmDfIItZwZ5oNtVcYrZcdTAwMTk831h/+cVq74Bvr2/26dZcdTAwMTfP6mJiwWaCXHUwMDFhjFx1MDAxMoXiLLDVXHUwMDBl28CjXHUwMDE5+lxcratcdTAwMDA5u7VaMyykXHUwMDA0glx1MDAxNGXrXGLmdt2xWksqXGJi4Fx1MDAwZdU6/NzeYlx1MDAwN1x1MDAxYnRth1x1MDAxZe/trZH96PPG4Vx1MDAxZKhq6bhudHL24Owsev7wmG483tmqR31xVJlaM6gwUY1aXHUwMDE3e29cdTAwMDK15kRvo0lue41cdTAwMDVcdTAwMTiH6blQT4NhPoVQQ86oXHUwMDEwnFx1MDAxNaJVjEUrhEBgpeSkcq2WTNF9XHUwMDA1Wn3+0/tvP4nd9FxyXHUwMDEyOEacM+ZXo8blRcFcZq+MYJaoXGZcdTAwMWIynlx1MDAxN2KFY4OBwoq32mxjkr6R1Lm5IVXczcvcYyEsJpVhNE6GXHUwMDExXHUwMDEwiGOIUVx1MDAxMbJFrvFcdTAwMWHYXHUwMDAyq8RdoMpxTVx1MDAwMadyplx1MDAxY9z37KzKJ79cdTAwMTaTgFx1MDAxOfxcdTAwMTH//vJeYe9sTOoricbk6ZyUOmZcdTAwMTiteN2uXHUwMDFkqWk90SblXHUwMDE4NTKDaFktoe22svcst5ncSS3i1SnVJGW3XHUwMDAxWzV62lx1MDAxMUvAXHUwMDAwXHUwMDEyXHRcdTAwMDZcdTAwMTlUS1x1MDAwNdSuXHSJVLeW6Vx1MDAwZtFH87GhbaxreLctM1x1MDAxN37KyvS9LFx1MDAwZljOodefKDXwXjyF0Ut8gNx6f30rOH25LZzGJKlcdTAwMDFmwmBFXHUwMDA3a1x1MDAxMFx1MDAxYSC7XHUwMDBmiFx1MDAxM34wz1x1MDAwZaagXHUwMDE2OU12QITAIH0mk+KQsclcdTAwMDHHXHUwMDFjIJy6X1x1MDAxMYWo3Vx1MDAwM0mmP0Nq8OHvX1+8+evF7/8zLFlXkVx1MDAxZDjWUVSSXHUwMDFiRJ4/LjFcdTAwMTgxPJtcdTAwMDWMtbSaRKC81FiWXGJQTFx1MDAxNPlkxHtQalx1MDAwM9iQhI6U1q9cdTAwMTHKpFx1MDAwMahcdTAwMTg9XHUwMDE3j5EqsIFcdTAwMDHgI5ifQ3ZcdTAwMDSy9VtnXHUwMDAzXHUwMDE0XCIpXHTOn2/rh/BYJKvtXCJkXHUwMDAw0aqP0CiWXHUwMDE0z3SEVmk2wEguLvVcdTAwMDWBQW98NFx1MDAxZtL6Slx1MDAwNXOVyURcdTAwMTUpg0IugEpcXKVcdTAwMTJTSThL9Vx1MDAxYWZcZrAoY5gocymvP2YyXHUwMDE3prJLqqKRI1xiXHUwMDE5wTRnXHUwMDA3NvR+dMAkv1RcdTAwMDJTXtwp40dcdTAwMGWxUVxcsVx1MDAwNNTgiFx1MDAxNX46oIuZeFxmPXJgIDi6wZqz41xiOy7fmlx1MDAxZCGRXG5cdTAwMTgq5or2SiUnjOo5TjghsnJ+pCrx+lx1MDAwNPhR7Ywyx2r64lx1MDAwNpfDXGK/aYB8YFx1MDAwZlrjkL5cdTAwMGKOnIacqMp1XHRgXHUwMDE0XHUwMDEwSFx1MDAwMaZFuypcdTAwMDHUtpoktk9JleXVoJQ1QOuLIFx1MDAwMlx1MDAwYsnVblx1MDAwZiZcdTAwMWa6JIT9S9FjeY26jFx1MDAxZYVgXHUwMDA2lGo6OXqUUNE+LK4kQSWro5llTI/AgPNcdTAwMGYmy9hx5fbsyLmKeMJcdTAwMGKTRz72i0lcdTAwMDRcdCBcdTAwMDBgdocnOjh8ZJ7io3B9f6d9XHUwMDAy1t2IXHUwMDFkr/WmOyHhKjWZqf5cXCnz5lwiXl9LcbDfXHUwMDA1b07MVDqp03qFXHUwMDA1hVxmXCKV/Fx1MDAwMklcbphT7SOGxzvlzJm39f9PaMVxkyO0fMFK81x1MDAxOSZcdTAwMDXbYcylwSCHhVx1MDAwNSs0L1hNwWCrk1x1MDAxN6yUcDNU/KFcdTAwMThcdTAwMWFLVJBjpfVI5TNVZ3GMSXirXHUwMDBmRf/78/nlXHUwMDFm/n3x7tv3f/zdx1x1MDAxZn9z+c/fflxuJ1o3yH+2llU2ianLWVx1MDAwYldcXFczfX83Uv6OXHUwMDE5TIWX3cw4ZNhcdTAwMTZZfuKMQdO217TWXFzz0Mn6vvbKtvrL5WhauGJcdTAwMTGNJmugpa9cdTAwMTde/1x1MDAwZv8zuvsifQ==<!-- payload-end --></metadata><defs><style class="style-fonts">
      @font-face { font-family: Xiaolai; src: url(https://esm.sh/@excalidraw/excalidraw@0.18.0/dist/prod/fonts/Xiaolai/Xiaolai-Regular-06c77b8c66e51ed6c63ccb502dd8b8af.woff2); }
      @font-face { font-family: Xiaolai; src: url(https://esm.sh/@excalidraw/excalidraw@0.18.0/dist/prod/fonts/Xiaolai/Xiaolai-Regular-0facdf1ea213ba40261022f5d5ed4493.woff2); }
      @font-face { font-family: Xiaolai; src: url(https://esm.sh/@excalidraw/excalidraw@0.18.0/dist/prod/fonts/Xiaolai/Xiaolai-Regular-f8ee5d36068a42b51d0e4a1116cfcec1.woff2); }
      @font-face { font-family: Xiaolai; src: url(https://esm.sh/@excalidraw/excalidraw@0.18.0/dist/prod/fonts/Xiaolai/Xiaolai-Regular-79d494361ae093b69e74ee9dbe65bfd4.woff2); }
      @font-face { font-family: Xiaolai; src: url(https://esm.sh/@excalidraw/excalidraw@0.18.0/dist/prod/fonts/Xiaolai/Xiaolai-Regular-74e2263a91439c25b91d5132ce9f4d62.woff2); }
      @font-face { font-family: Xiaolai; src: url(https://esm.sh/@excalidraw/excalidraw@0.18.0/dist/prod/fonts/Xiaolai/Xiaolai-Regular-145aa02cdd91946e67dc934e1acffe75.woff2); }</style></defs><rect x="0" y="0" width="796.4796073686332" height="359.34765625" fill="transparent"/><g stroke-linecap="round" transform="translate(30 105.29296875) rotate(0 99.259765625 21.080078125)"><path d="M10.54 0 C75.48 2.55, 143.79 0.97, 187.98 0 M10.54 0 C69.2 -2.13, 126.63 -1, 187.98 0 M187.98 0 C195.1 0.88, 200.36 4.98, 198.52 10.54 M187.98 0 C197 -1.7, 199.67 2.84, 198.52 10.54 M198.52 10.54 C197.76 19.38, 197.92 25.74, 198.52 31.62 M198.52 10.54 C197.82 19.72, 198.86 27.23, 198.52 31.62 M198.52 31.62 C199.56 37.34, 193.78 41.78, 187.98 42.16 M198.52 31.62 C197.54 36.82, 195.75 40.18, 187.98 42.16 M187.98 42.16 C126.43 44.6, 59.91 41.95, 10.54 42.16 M187.98 42.16 C148.6 42.34, 107.73 41.78, 10.54 42.16 M10.54 42.16 C3.14 43.67, -0.79 37.64, 0 31.62 M10.54 42.16 C3.63 42.87, 0.56 40.93, 0 31.62 M0 31.62 C-1.65 26.49, 1.67 20.03, 0 10.54 M0 31.62 C0.72 24.62, 0.74 16.45, 0 10.54 M0 10.54 C-1.95 3.39, 4.83 0.52, 10.54 0 M0 10.54 C-0.53 4.24, 2.41 -1.45, 10.54 0" stroke="#1e1e1e" stroke-width="2" fill="none"/></g><g transform="translate(39.259765625 113.873046875) rotate(0 90 12.5)"><text x="90" y="17.619999999999997" font-family="Excalifont, Xiaolai, Segoe UI Emoji" font-size="20px" fill="#1e1e1e" text-anchor="middle" style="white-space: pre;" direction="ltr" dominant-baseline="alphabetic">问题分析和变更描述</text></g><g stroke-linecap="round" transform="translate(207.892578125 210.080078125) rotate(0 99.259765625 17.5)"><path d="M8.75 0 C76.35 -1, 146.8 -2.32, 189.77 0 M8.75 0 C56.6 2.04, 106.83 1.16, 189.77 0 M189.77 0 C196.44 0.41, 197.6 1.11, 198.52 8.75 M189.77 0 C196.33 -1.11, 198.4 4.27, 198.52 8.75 M198.52 8.75 C199.56 13.96, 197.33 17.09, 198.52 26.25 M198.52 8.75 C199.1 12.1, 198.03 16.89, 198.52 26.25 M198.52 26.25 C197.2 34, 193.82 33.69, 189.77 35 M198.52 26.25 C200.32 31.91, 195.77 32.73, 189.77 35 M189.77 35 C138.83 35.36, 84.44 38.12, 8.75 35 M189.77 35 C149.75 33.19, 111.24 34.18, 8.75 35 M8.75 35 C4.87 36.86, 0.3 30.67, 0 26.25 M8.75 35 C1.64 34.52, 0.8 30.14, 0 26.25 M0 26.25 C0.87 21.87, 1.72 13.65, 0 8.75 M0 26.25 C-0.48 20.83, 0.6 15.6, 0 8.75 M0 8.75 C1.74 4.21, 1.38 -0.96, 8.75 0 M0 8.75 C2.26 3.27, 2.16 -0.21, 8.75 0" stroke="#1e1e1e" stroke-width="2" fill="none"/></g><g transform="translate(217.15234375 215.080078125) rotate(0 90 12.5)"><text x="90" y="17.619999999999997" font-family="Excalifont, Xiaolai, Segoe UI Emoji" font-size="20px" fill="#1e1e1e" text-anchor="middle" style="white-space: pre;" direction="ltr" dominant-baseline="alphabetic">变更分析和成本计算</text></g><g stroke-linecap="round" transform="translate(381.326171875 294.34765625) rotate(0 99.259765625 17.5)"><path d="M8.75 0 C50.3 0.61, 95.96 -0.47, 189.77 0 M8.75 0 C45.48 -0.6, 83.34 -0.14, 189.77 0 M189.77 0 C193.71 -0.45, 197.52 2.08, 198.52 8.75 M189.77 0 C196.78 0.22, 198.35 3.06, 198.52 8.75 M198.52 8.75 C199.87 14.62, 197.49 20.09, 198.52 26.25 M198.52 8.75 C198.49 13.65, 198.05 20.23, 198.52 26.25 M198.52 26.25 C199.45 32.55, 195.68 35.2, 189.77 35 M198.52 26.25 C200.68 32.68, 194.23 33.26, 189.77 35 M189.77 35 C141.44 33.84, 94.12 32.14, 8.75 35 M189.77 35 C152.8 36.45, 117.45 35.51, 8.75 35 M8.75 35 C3.1 36.31, 1.86 33.75, 0 26.25 M8.75 35 C2.4 34.29, -1.01 31.56, 0 26.25 M0 26.25 C1.57 21.02, 1.6 18.84, 0 8.75 M0 26.25 C-0.52 21.84, -0.24 18.46, 0 8.75 M0 8.75 C-0.23 3.31, 2.53 1.66, 8.75 0 M0 8.75 C1.01 4.63, 4.5 -0.66, 8.75 0" stroke="#1e1e1e" stroke-width="2" fill="none"/></g><g transform="translate(440.5859375 299.34765625) rotate(0 40 12.5)"><text x="40" y="17.619999999999997" font-family="Excalifont, Xiaolai, Segoe UI Emoji" font-size="20px" fill="#1e1e1e" text-anchor="middle" style="white-space: pre;" direction="ltr" dominant-baseline="alphabetic">变更实现</text></g><g stroke-linecap="round"><g transform="translate(116.83984375 59.56640625) rotate(0 1.1171875 23.98828125)"><path d="M0.04 -0.06 C0.4 7.96, 1.86 40.45, 2.2 48.42 M-0.61 -0.57 C-0.32 7.28, 1.37 39.54, 1.76 47.68" stroke="#1e1e1e" stroke-width="2" fill="none"/></g><g transform="translate(116.83984375 59.56640625) rotate(0 1.1171875 23.98828125)"><path d="M-7.57 25.55 C-4.83 32.13, -1.11 38.61, 1.76 47.68 M-7.57 25.55 C-5.62 31.3, -2.76 36.91, 1.76 47.68" stroke="#1e1e1e" stroke-width="2" fill="none"/></g><g transform="translate(116.83984375 59.56640625) rotate(0 1.1171875 23.98828125)"><path d="M8.83 24.73 C6.65 31.57, 5.44 38.28, 1.76 47.68 M8.83 24.73 C6.5 30.63, 5.09 36.45, 1.76 47.68" stroke="#1e1e1e" stroke-width="2" fill="none"/></g></g><mask/><g transform="translate(64.3046875 30) rotate(0 50 12.5)"><text x="0" y="17.619999999999997" font-family="Excalifont, Xiaolai, Segoe UI Emoji" font-size="20px" fill="#1e1e1e" text-anchor="start" style="white-space: pre;" direction="ltr" dominant-baseline="alphabetic">识别出问题</text></g><g stroke-linecap="round"><g transform="translate(229.76953125 122.90234375) rotate(0 34.529296875 41.650390625)"><path d="M1.01 1.2 C11.68 2.7, 51.51 -4, 63 9.71 C74.48 23.41, 68.87 71.14, 69.94 83.43 M0.07 0.78 C11.2 2.35, 53.56 -3.18, 65.15 10.83 C76.74 24.83, 68.85 72.52, 69.63 84.82" stroke="#1e1e1e" stroke-width="2" fill="none"/></g><g transform="translate(229.76953125 122.90234375) rotate(0 34.529296875 41.650390625)"><path d="M62.19 60.95 C65.9 64.15, 64.15 72.42, 69.63 84.82 M62.19 60.95 C64.8 68.38, 66.52 76.66, 69.63 84.82" stroke="#1e1e1e" stroke-width="2" fill="none"/></g><g transform="translate(229.76953125 122.90234375) rotate(0 34.529296875 41.650390625)"><path d="M79.27 61.75 C79.38 64.92, 74.03 73.02, 69.63 84.82 M79.27 61.75 C76.57 68.95, 72.98 76.98, 69.63 84.82" stroke="#1e1e1e" stroke-width="2" fill="none"/></g></g><mask/><g stroke-linecap="round"><g transform="translate(409.21484375 224.68359375) rotate(0 37.66796875 35.10546875)"><path d="M0.84 -0.13 C12.3 1.37, 55.77 -3.31, 68.37 8.51 C80.96 20.34, 75.08 60.44, 76.42 70.81 M-0.18 -1.24 C11.19 -0.04, 54.89 -4.9, 67.62 6.77 C80.35 18.44, 74.63 58.5, 76.22 68.79" stroke="#1e1e1e" stroke-width="2" fill="none"/></g><g transform="translate(409.21484375 224.68359375) rotate(0 37.66796875 35.10546875)"><path d="M67.44 45.38 C69.48 52.24, 73.26 59.68, 76.22 68.79 M67.44 45.38 C71.35 54.53, 73.46 62.43, 76.22 68.79" stroke="#1e1e1e" stroke-width="2" fill="none"/></g><g transform="translate(409.21484375 224.68359375) rotate(0 37.66796875 35.10546875)"><path d="M84.54 45.21 C81.99 52.24, 81.18 59.72, 76.22 68.79 M84.54 45.21 C82.46 54.5, 78.59 62.46, 76.22 68.79" stroke="#1e1e1e" stroke-width="2" fill="none"/></g></g><mask/><g mask="url(#mask-ntxzGzztYKj5HORJAtw8f)" stroke-linecap="round"><g transform="translate(581.87109375 310.828125) rotate(0 91.765625 -0.05078125)"><path d="M-0.28 0.61 C30.67 0.66, 153.88 -0.31, 184.61 -0.31 M1.78 -0.11 C32.76 0.18, 153.92 1.33, 184.23 1.12" stroke="#1e1e1e" stroke-width="2" fill="none"/></g><g transform="translate(581.87109375 310.828125) rotate(0 91.765625 -0.05078125)"><path d="M160.71 9.61 C166.68 9.69, 170.2 7.04, 184.23 1.12 M160.71 9.61 C170.06 6.73, 178.38 3.34, 184.23 1.12" stroke="#1e1e1e" stroke-width="2" fill="none"/></g><g transform="translate(581.87109375 310.828125) rotate(0 91.765625 -0.05078125)"><path d="M160.76 -7.49 C166.63 -3.85, 170.14 -2.93, 184.23 1.12 M160.76 -7.49 C170.1 -4.25, 178.4 -1.52, 184.23 1.12" stroke="#1e1e1e" stroke-width="2" fill="none"/></g></g><mask id="mask-ntxzGzztYKj5HORJAtw8f"><rect x="0" y="0" fill="#fff" width="865.40234375" height="410.9296875"/><rect x="613.63671875" y="298.27734375" fill="#000" width="120" height="25" opacity="1"/></mask><g transform="translate(613.63671875 298.27734375) rotate(0 60.40016993992032 12.968486494699391)"><text x="60" y="17.619999999999997" font-family="Excalifont, Xiaolai, Segoe UI Emoji" font-size="20px" fill="#1e1e1e" text-anchor="middle" style="white-space: pre;" direction="ltr" dominant-baseline="alphabetic">修改后的需求</text></g></svg>