<svg version="1.1" xmlns="http://www.w3.org/2000/svg" viewBox="0 0 651.050048828125 604.37109375" width="1302.10009765625" height="1208.7421875"><!-- svg-source:excalidraw --><metadata><!-- payload-type:application/vnd.excalidraw+json --><!-- payload-version:2 --><!-- payload-start -->eyJ2ZXJzaW9uIjoiMSIsImVuY29kaW5nIjoiYnN0cmluZyIsImNvbXByZXNzZWQiOnRydWUsImVuY29kZWQiOiJ4nO1bbW/b1lx1MDAxNf6eX2FoX2P2vr/km53YjdPWdmInjjdcdTAwMTRcdTAwMDMl0Vx1MDAxMi2KVCjKb0WAdFx1MDAxOZagzdZsy4ah3ZZcdTAwMDZYUWDA+oJuXHUwMDAx4m7Lj1mk2P+ih7IkUlx1MDAxMilLsuZcdTAwMDWDXHUwMDE0IJDuvSRcdTAwMGbvPc/znHPu9Vx1MDAwN1x1MDAxN2ZmMsF+xcpcXJrJWHs507HzvrmbuVx1MDAxOLbvWH7V9lxc6Fwizd9Vr+bnmiOLQVCpXnrrLbNSMVxudpD1vJKR88onl1mOVbbcoFxuXHUwMDAzf1x1MDAwMr9nZj5o/lx1MDAwZj12PrzYvepu1lx1MDAwZa6T2d35xber2XddNFs+ubQ5qG2Nb+VcdTAwMDLTLThW1LVcdTAwMDftXGZxQ1x1MDAxMCY1Q0hQJoXodO9DN6bYIJpThpnGQmtCOt27dj4oNocog3PFNZW801m07EIxXGLvL1xyRDVcdTAwMTIk6jux4tJcZuq0VFx1MDAwM98rWZc9x/NDU3+ErfBfZGjWzJVcbr5Xc/OdMYFvutWK6cPMROO2bMdZXHUwMDBi9pt3h+mFyc/0PGOjZTTpaU+7XG5cdTAwMWVaKLpWNZx93Gn1KmbOXHUwMDBlmvODordcYi2sLOWbXHUwMDBi9X5kk2+WraVwpdya43SabTdvhfOfMVHX09x862ntVY6WkLZa7ka2W1a+uVx1MDAwMlRiKrTUnZ7I10Rf47LnNt1cdTAwMGVcdTAwMTOqJVZCRUtjV6+Au1x1MDAwNc27bplO1YqWIDRtoddcdTAwMTXj7tjlbYG1XHUwMDE3rUvMWW9cdTAwMWRcXPPt0v7GXG4yt3a88sq7pcLyaqYz7u7F5NueXFx8e9G5bkm9vnVcdTAwMTDsuUtu8caam13ufkr7+abve7ux+7a+RctSq+TNk/fEUnJBheBCIdbpd2y31LtmjpcrRVNzIWZwXHUwMDBmJJPfslx1MDAwZpJdk3SCRspcZo1cdTAwMTjSSCmcgEZGXGaKmZJEslx1MDAxNDQq1I/BKfbSsIeTsdc1ulxyMkapZoJQmVx1MDAwMDIs0kCmgGAxxlxij4OxXHUwMDAx7lxudItcdTAwMTRcdTAwMWTBXSPvXHUwMDBivVx1MDAwZV7+1eGXr588Pf7D88ZX/4gto+dcdTAwMDZr9kFoOkFdrYtm2XbCeeddt5pz7EI4XHUwMDA1mVx1MDAxY1ht+Zn4RFx1MDAwNDYoYGdA2c7n4/KTg5uatmv5S8PomOfbXHUwMDA12zWd9YHmm7XAu2FVT14g8GtWfIasq21EgKjxXHUwMDAx+EXXxFx1MDAwZd/OrnnZ7dzmvrtcdTAwMTWsLMyj4SVcdTAwMTWDIFKluOBJkkqkMFx1MDAxMEBcdTAwMTeLlqROXHUwMDE1dcKoJmdXVFx0Uyw4xXFvbmM9xrq9ilxuOFecY36OilphO6WiQyql21x1MDAxYnf2t1xu2WyWbVx1MDAxN85BUVx1MDAwN963tHt7rraeu7W6slNe2j8oZ6/svbM6MaVcdTAwMTZEYlx1MDAxZFx1MDAwN/b4Sp08e8MoNcBQYYU5pUlKTZQ0gPYlky2lnlxu9UnrmJCmw1x1MDAwYjVXSHDFeFx1MDAxMnZlqk5jpCljVI9cdTAwMDfdQd5cbtG5QCN4a59Q1/95r/7Jr99cdTAwMWOhPkVcdTAwMWR7hTrZ/MlcYjWrbeWu/7R0ZyXI31xc8Dc1uTW/d2d4oSbK0Fqn5b6MKUNSojq571SoJ4xqdmahJirM2zhLXHUwMDE0apkq1IRcdTAwMTKOlZRjReXj6XS2zIJFd3Xuznplf5bu01x1MDAxMlx1MDAwYvb0OejpYP3f2yz9eMcrbc9tX7mpNtSyLL63MDGdloCqUVKUXHUwMDAxQE+evWF0miuDSJ2WUTOuXHLJIakjU52eXHUwMDA0ovlcYlx0NdeSM1x1MDAwZVx1MDAwMpmEXcrTsIuZgshKxepaXHUwMDEzXHUwMDEyanCTWHwwhlBcdTAwMWa9fHz07NGbI9SnqGOvUCebP1x1MDAxOaG+tqdvrm+uXHUwMDE0NsoqWytcdTAwMWPYy3TR2Vx1MDAxZF6oXHUwMDE5Mlx1MDAxMIPAXydcbrWAbuhklJNcdTAwMTRcdTAwMTBcdTAwMGZcdTAwMTZqOoVzXG6cxdkzaYJcdTAwMTgkxThcdORE9rW2QVx1MDAwZSvNtVL0XHUwMDFjXHUwMDEzaU7y89vFzVx1MDAwM86q9oLvL83Oeab5fyekyW85jJBcbm1A1KQht0pcdTAwMTJSwfgpXHUwMDE4nFxu6SjIkyNcYqmELIMpwmhcdTAwMTLGWKqQXHUwMDEyhFx1MDAwNVJUKzlcdTAwMGXIXHUwMDA2+SuTKJZHj6GkjedcdTAwMGZfXHUwMDFkPntzlPRcdTAwMTT56lXSZPMno6SDS3Y9LNONYElccow5XCIqsWSFXHUwMDE1MjAnXHUwMDEyqCZU2qTNJWFoLlx1MDAxMcUkQUQ1N1x1MDAxMJJcbk8hnVx1MDAwNmk1rJiSVDHVkLiyNDVFvY2dPSgpXHUwMDE44Wi8fd7TtkzHipgrnt2r1dG3mchhmj8639+/mDi63yvDT+SP0fV9UuuY1eCyVy7bXHUwMDAxvNhqaFRcdTAwMWbHXHUwMDA2plx1MDAxZszDXCLabqF7sVrnMobZvGqyVK5cdTAwMTa+MFx1MDAwNLJcdTAwMWNTorHWkmhOMIlcciqYlSZcdTAwMDEoXGaRT1x1MDAxOKv2OYLl5k83ZnCBLmbMLFhcdTAwMDNkoFx1MDAxMFx1MDAxNWBcbqJI9lx1MDAxYtPvi+GMzIX0UrTMPndcdTAwMDdcdTAwMDPjfb08ZDlZb3eoQGVwyWMgzylmaKko0oIm8Fx1MDAxYyXEIIxcYiQxXHUwMDE2iZGKMFx1MDAwNCUqkeUwXHUwMDExhpJTikuhOH1mioM1XHUwMDAzf0Q6KZah6Vx1MDAxYm8qZCSE2cRDXHUwMDE5QSRcdTAwMTmrej9hiuvxyPDT8sXzoLehXHUwMDE5JaS3MPjTXHUwMDE4XHUwMDEyP0CXXHUwMDEyNDYqjVKGYrXB1YxcdTAwMWVWa267QbDT1Cgs3iBeXHUwMDFinClcdTAwMGXkNS1ccszAIZPjN6YhvNMhflrxW39cdTAwMDZcdTAwMDbhXyqxhUeL4J58ul2Rym5zZ2Y3xSSXXHUwMDFhq8QzRKlcdTAwMDf1tISMWorYcZ9cdJHbqHWF/1x1MDAwZbn1u2X4iTvkeVDc0PRcdTAwMDLsXHUwMDAy8Vx1MDAxYpOEcqpcYsWa9VNcdTAwMWMxuCQkbvuIZDc44ewhO6o5JG8hMYBnKc76zOEww1x1MDAxYTOUZM450d781tzaru3vOda8vVC5cXmRX0VLw9SdOFx1MDAwN/GTXHUwMDEw00HaymDWI+icnIiUXHUwMDA2rIVCXHUwMDEy4n+E41t+bdZjbFp4XHUwMDFhgeTmhy88KchFqY6fdlx1MDAxYe6kXHUwMDA1plx1MDAxMpx10tmo0oxF2dRYVadPXHUwMDFl11x1MDAxZlx1MDAxY9a/Pzz66t+vXj5rfPj1609/Xn/4p8bfvmjc/67x3e/+c+/D+tcvjv94r/Htz45efnb07NHRN/dff/6k/ptH9Ye/aPz58SRqVY61XHUwMDE186G+SlXgVdLKVF3v2leTmuDLTWhPaMVcdTAwMTdzy9tbq4K/bd7cXHUwMDA3c99xh9rT5ZJcdTAwMTlSXCKNXHSWiGFcdTAwMTQtentLXHUwMDE3wk6JkEqJg/C0XHUwMDE0PVxuI1xcXHUwMDFloVx1MDAxNFxyJI2RZCSpQMX7crqoXHUwMDEyjTiDtI9P+pS0JkTiUVx1MDAwZfX3ccLxvU+PXj44/uujxpPngJDXX37/6vAvr158XFx//Ks3XHUwMDE47ENZPVx1MDAxOVx1MDAxNEtcdTAwMGLbs/zWwZ1cXHG9vHFF29dtnVx1MDAxYlxuxVx1MDAxYVx1MDAxOUIxRoSSWqlcdTAwMWVhXHUwMDE3jFx1MDAxYVx1MDAwMG7AMEVUYlx1MDAxNFx1MDAwNcdtXHUwMDE0XHUwMDEzpYzwWo5an+hcdTAwMDYxUFx1MDAxYlx1MDAxMoK0aVU6XHUwMDFk3VeGRzdBXG5cdTAwMTZcdTAwMDTirKTiXGZO/1x1MDAxYohwhSB2mzy64XO2v4FofPb3xu+/aTx5cXzv81D/Pnp6dP9fjY9/W/82lMPGR1/UXHUwMDBmn1x1MDAxZT/4JahmXG7YXHLePODXdkHaNep/pfRjvNTIXFxwoZWEZcxKZS2AdekkM+CIdr6HXHJP2lx1MDAwMqtcdTAwMTJNRrPpPS9vLbhm1uldo8yObe3OXHUwMDBmxt2FXHUwMDE2JYW4s5qJ+N1cdTAwMGJ3f1x1MDAwMFx1MDAxOabT9yJ9<!-- payload-end --></metadata><defs><style class="style-fonts">
      @font-face { font-family: Xiaolai; src: url(https://esm.sh/@excalidraw/excalidraw@0.18.0/dist/prod/fonts/Xiaolai/Xiaolai-Regular-353f33792a8f60dc69323ddf635a269e.woff2); }
      @font-face { font-family: Xiaolai; src: url(https://esm.sh/@excalidraw/excalidraw@0.18.0/dist/prod/fonts/Xiaolai/Xiaolai-Regular-0facdf1ea213ba40261022f5d5ed4493.woff2); }
      @font-face { font-family: Xiaolai; src: url(https://esm.sh/@excalidraw/excalidraw@0.18.0/dist/prod/fonts/Xiaolai/Xiaolai-Regular-f8ee5d36068a42b51d0e4a1116cfcec1.woff2); }
      @font-face { font-family: Xiaolai; src: url(https://esm.sh/@excalidraw/excalidraw@0.18.0/dist/prod/fonts/Xiaolai/Xiaolai-Regular-79d494361ae093b69e74ee9dbe65bfd4.woff2); }
      @font-face { font-family: Xiaolai; src: url(https://esm.sh/@excalidraw/excalidraw@0.18.0/dist/prod/fonts/Xiaolai/Xiaolai-Regular-74e2263a91439c25b91d5132ce9f4d62.woff2); }
      @font-face { font-family: Xiaolai; src: url(https://esm.sh/@excalidraw/excalidraw@0.18.0/dist/prod/fonts/Xiaolai/Xiaolai-Regular-145aa02cdd91946e67dc934e1acffe75.woff2); }</style></defs><rect x="0" y="0" width="651.050048828125" height="604.37109375" fill="transparent"/><g stroke-linecap="round" transform="translate(30 30) rotate(0 69.279296875 23.51953125)"><path d="M11.76 0 C37.28 1.05, 59.45 1, 126.8 0 M11.76 0 C37.57 1.53, 63.17 0.78, 126.8 0 M126.8 0 C135.51 1.23, 137.88 2.07, 138.56 11.76 M126.8 0 C133.3 1.2, 138.21 5.42, 138.56 11.76 M138.56 11.76 C137.12 21.33, 138.44 27.97, 138.56 35.28 M138.56 11.76 C138.66 17.8, 138.14 22.74, 138.56 35.28 M138.56 35.28 C137.54 41.27, 133.12 48.27, 126.8 47.04 M138.56 35.28 C139.86 41.94, 136.88 49.03, 126.8 47.04 M126.8 47.04 C96.53 46.09, 64.74 45.73, 11.76 47.04 M126.8 47.04 C93.22 47.88, 58.45 48.1, 11.76 47.04 M11.76 47.04 C5.14 46.73, -1.88 41.58, 0 35.28 M11.76 47.04 C3.84 45.67, -1.04 41.25, 0 35.28 M0 35.28 C0.13 26.91, -1.43 18.19, 0 11.76 M0 35.28 C-0.08 27.28, 0.41 19.54, 0 11.76 M0 11.76 C0.59 5.27, 5.32 1.16, 11.76 0 M0 11.76 C0.1 5.24, 3.04 0.61, 11.76 0" stroke="#1e1e1e" stroke-width="2" fill="none"/></g><g transform="translate(59.279296875 41.01953125) rotate(0 40 12.5)"><text x="40" y="17.619999999999997" font-family="Excalifont, Xiaolai, Segoe UI Emoji" font-size="20px" fill="#1e1e1e" text-anchor="middle" style="white-space: pre;" direction="ltr" dominant-baseline="alphabetic">产生阶段</text></g><g stroke-linecap="round" transform="translate(42.9140625 174.796875) rotate(0 69.279296875 23.51953125)"><path d="M11.76 0 C40.15 0.99, 66.89 0.75, 126.8 0 M11.76 0 C46.4 0.3, 80.99 -0.25, 126.8 0 M126.8 0 C135.14 -1.86, 140.27 4.74, 138.56 11.76 M126.8 0 C136.62 -2.02, 140.62 2.32, 138.56 11.76 M138.56 11.76 C139.14 18.66, 136.79 23.37, 138.56 35.28 M138.56 11.76 C137.85 17.86, 139.38 22.25, 138.56 35.28 M138.56 35.28 C136.74 42.12, 134.29 48.22, 126.8 47.04 M138.56 35.28 C136.54 42.13, 132.66 47.88, 126.8 47.04 M126.8 47.04 C98.99 45.88, 75.12 47.36, 11.76 47.04 M126.8 47.04 C99.78 48.02, 72.9 48.42, 11.76 47.04 M11.76 47.04 C3.97 47.11, -0.04 42.1, 0 35.28 M11.76 47.04 C4.41 45.31, 1.74 43.64, 0 35.28 M0 35.28 C1.96 24.47, 0.2 15.25, 0 11.76 M0 35.28 C0.74 31.08, -0.71 25.64, 0 11.76 M0 11.76 C0.3 5.41, 4.71 1.37, 11.76 0 M0 11.76 C-0.07 6.13, 4.18 -0.83, 11.76 0" stroke="#1e1e1e" stroke-width="2" fill="none"/></g><g transform="translate(72.193359375 185.81640625) rotate(0 40 12.5)"><text x="40" y="17.619999999999997" font-family="Excalifont, Xiaolai, Segoe UI Emoji" font-size="20px" fill="#1e1e1e" text-anchor="middle" style="white-space: pre;" direction="ltr" dominant-baseline="alphabetic">开发阶段</text></g><g stroke-linecap="round" transform="translate(53.375 347.4375) rotate(0 69.279296875 23.51953125)"><path d="M11.76 0 C45.03 -0.66, 80.61 -1.25, 126.8 0 M11.76 0 C36.16 -0.71, 59.83 0.12, 126.8 0 M126.8 0 C134.55 -1.37, 138.69 3.18, 138.56 11.76 M126.8 0 C132.71 -0.7, 137.36 5, 138.56 11.76 M138.56 11.76 C139.74 19.18, 139.95 28.61, 138.56 35.28 M138.56 11.76 C139.04 18.97, 138.33 26.89, 138.56 35.28 M138.56 35.28 C140.48 42.82, 133.72 46.12, 126.8 47.04 M138.56 35.28 C140 43.31, 135.07 46.14, 126.8 47.04 M126.8 47.04 C91.19 45.25, 53.77 45.64, 11.76 47.04 M126.8 47.04 C102.23 46.54, 75.94 46.45, 11.76 47.04 M11.76 47.04 C3.22 46.02, 0.37 44.04, 0 35.28 M11.76 47.04 C5.34 46.64, 1.84 41.3, 0 35.28 M0 35.28 C0.65 29.27, -1.01 20.41, 0 11.76 M0 35.28 C-0.79 26.44, 0.4 17.39, 0 11.76 M0 11.76 C-1.98 2.79, 2.22 0.41, 11.76 0 M0 11.76 C-1.92 4.17, 3.83 -0.88, 11.76 0" stroke="#1e1e1e" stroke-width="2" fill="none"/></g><g transform="translate(82.654296875 358.45703125) rotate(0 40 12.5)"><text x="40" y="17.619999999999997" font-family="Excalifont, Xiaolai, Segoe UI Emoji" font-size="20px" fill="#1e1e1e" text-anchor="middle" style="white-space: pre;" direction="ltr" dominant-baseline="alphabetic">运行阶段</text></g><g stroke-linecap="round" transform="translate(64.421875 539.37109375) rotate(0 69.279296875 17.5)"><path d="M8.75 0 C41.87 0.89, 76.32 -1.14, 129.81 0 M8.75 0 C36.64 0.59, 62.61 0.17, 129.81 0 M129.81 0 C134.56 -0.59, 138.59 2.9, 138.56 8.75 M129.81 0 C137.14 -1.04, 140.51 4.07, 138.56 8.75 M138.56 8.75 C140.25 14.3, 138.27 21.45, 138.56 26.25 M138.56 8.75 C138.32 15.44, 138.2 22.23, 138.56 26.25 M138.56 26.25 C137.25 32.38, 135.78 36.72, 129.81 35 M138.56 26.25 C139.2 30.72, 133.66 35.21, 129.81 35 M129.81 35 C87.65 34.35, 44 34.06, 8.75 35 M129.81 35 C100.09 35.86, 71.1 35.5, 8.75 35 M8.75 35 C4.91 34.3, -1.45 31.83, 0 26.25 M8.75 35 C2.25 33.12, 1.15 32.56, 0 26.25 M0 26.25 C-0.98 23.05, -0.49 15.95, 0 8.75 M0 26.25 C-0.26 21.15, -0.8 16.19, 0 8.75 M0 8.75 C-1.53 1.9, 1.57 -1.17, 8.75 0 M0 8.75 C-1.59 0.79, 4.64 1.35, 8.75 0" stroke="#1e1e1e" stroke-width="2" fill="none"/></g><g transform="translate(93.701171875 544.37109375) rotate(0 40 12.5)"><text x="40" y="17.619999999999997" font-family="Excalifont, Xiaolai, Segoe UI Emoji" font-size="20px" fill="#1e1e1e" text-anchor="middle" style="white-space: pre;" direction="ltr" dominant-baseline="alphabetic">消亡阶段</text></g><g stroke-linecap="round"><g transform="translate(97.490234375 78.857421875) rotate(0 3.478515625 47.50390625)"><path d="M-0.72 1.01 C0.37 16.93, 5.33 79.95, 6.61 95.51 M1.1 0.5 C2.01 16.05, 4.64 77.84, 5.48 93.65" stroke="#1e1e1e" stroke-width="2" fill="none"/></g><g transform="translate(97.490234375 78.857421875) rotate(0 3.478515625 47.50390625)"><path d="M-4.17 70.59 C0.43 77.02, 2.49 84.53, 5.48 93.65 M-4.17 70.59 C-2.58 76.84, 1.56 81.57, 5.48 93.65" stroke="#1e1e1e" stroke-width="2" fill="none"/></g><g transform="translate(97.490234375 78.857421875) rotate(0 3.478515625 47.50390625)"><path d="M12.91 69.78 C12.37 76.35, 9.28 84.1, 5.48 93.65 M12.91 69.78 C10.25 76.2, 10.12 81.12, 5.48 93.65" stroke="#1e1e1e" stroke-width="2" fill="none"/></g></g><mask/><g stroke-linecap="round"><g transform="translate(109.353515625 220.947265625) rotate(0 3.31640625 63.4375)"><path d="M0.69 -0.17 C1.99 20.83, 5.49 104.94, 6.67 126.02 M-0.4 -1.31 C0.84 19.82, 4.4 105.67, 5.75 127.11" stroke="#1e1e1e" stroke-width="2" fill="none"/></g><g transform="translate(109.353515625 220.947265625) rotate(0 3.31640625 63.4375)"><path d="M-3.99 104.08 C-2.26 108.86, -1.38 115.52, 5.75 127.11 M-3.99 104.08 C-1.09 109.91, 1.82 116.31, 5.75 127.11" stroke="#1e1e1e" stroke-width="2" fill="none"/></g><g transform="translate(109.353515625 220.947265625) rotate(0 3.31640625 63.4375)"><path d="M13.09 103.21 C11.28 108.27, 8.63 115.11, 5.75 127.11 M13.09 103.21 C11.66 109.32, 10.23 115.94, 5.75 127.11" stroke="#1e1e1e" stroke-width="2" fill="none"/></g></g><mask/><g stroke-linecap="round"><g transform="translate(121.521484375 391.904296875) rotate(0 4.056640625 71.173828125)"><path d="M-0.09 0.04 C1.09 23.89, 6.65 119.96, 7.88 143.54 M-1.6 -0.99 C-0.67 22.52, 4.92 118.15, 6.82 142.04" stroke="#1e1e1e" stroke-width="2" fill="none"/></g><g transform="translate(121.521484375 391.904296875) rotate(0 4.056640625 71.173828125)"><path d="M-3.29 119.17 C0.56 127.17, 6.18 134.55, 6.82 142.04 M-3.29 119.17 C-1.94 124.81, 1.84 130.5, 6.82 142.04" stroke="#1e1e1e" stroke-width="2" fill="none"/></g><g transform="translate(121.521484375 391.904296875) rotate(0 4.056640625 71.173828125)"><path d="M13.78 118.03 C11.38 126.43, 10.75 134.23, 6.82 142.04 M13.78 118.03 C11.24 123.77, 11.14 129.72, 6.82 142.04" stroke="#1e1e1e" stroke-width="2" fill="none"/></g></g><mask/><g transform="translate(181.050048828125 46.6524658203125) rotate(0 220 12.5)"><text x="0" y="17.619999999999997" font-family="Excalifont, Xiaolai, Segoe UI Emoji" font-size="20px" fill="#1e1e1e" text-anchor="start" style="white-space: pre;" direction="ltr" dominant-baseline="alphabetic">提出建设信息的初步想法、对需求进行调研和分析</text></g><g transform="translate(199.1461181640625 358.568359375) rotate(0 90 12.5)"><text x="0" y="17.619999999999997" font-family="Excalifont, Xiaolai, Segoe UI Emoji" font-size="20px" fill="#1e1e1e" text-anchor="start" style="white-space: pre;" direction="ltr" dominant-baseline="alphabetic">通过验收、移交之后</text></g><g transform="translate(215.05963287353507 542.4087448120117) rotate(0 144.13437500000003 12.869140625)"><text x="0" y="18.140340625" font-family="Excalifont, Xiaolai, Segoe UI Emoji" font-size="20.590625000000003px" fill="#1e1e1e" text-anchor="start" style="white-space: pre;" direction="ltr" dominant-baseline="alphabetic">更新改造、功能拓展、报废重建</text></g></svg>