<svg version="1.1" xmlns="http://www.w3.org/2000/svg" viewBox="0 0 1054.331066608429 523.404296875" width="2108.662133216858" height="1046.80859375"><!-- svg-source:excalidraw --><metadata><!-- payload-type:application/vnd.excalidraw+json --><!-- payload-version:2 --><!-- payload-start -->eyJ2ZXJzaW9uIjoiMSIsImVuY29kaW5nIjoiYnN0cmluZyIsImNvbXByZXNzZWQiOnRydWUsImVuY29kZWQiOiJ4nO2c31NcdTAwMWLXXHUwMDE1x9/9VzD0NWzu71x1MDAxZnlcdTAwMDOE+Y1cdTAwMTFcYjBuM8yCXHUwMDE2XHUwMDEwXHUwMDEyWiGtJCDjmXSmyTiJp9NmXHUwMDEyv7R1xpk8+KVO28mkbZz6rzGQPuVf6FlcdTAwMDH6eVfaldZcdTAwMDR3hGc8sNJK5+6e7/mcc++5+8GdkZFR76TgjL43MupcdTAwMWPv2LlMumhXR9/xj1ecYinj5uElUvu75JaLO7V37nteofTeu+/ahYK1l/G2XTdr7biHl6c5OefQyXsleOOv4e+RkVx1MDAwZmr/wyuZtH/ywlx1MDAxYXbmjmbtxUo6ubbMvS1+MiNrp9bedG1N0dnx7Pxezmm8dOybwqWlOcWE11x1MDAwZp/AYSyVxYhcdTAwMTZKNo5XM2lv33+NMVx1MDAwYlx1MDAxMUlcdTAwMTltenHfyezte/Aq51x1MDAxNpa4+bzLb31vXHUwMDA01Y+UvKKbdSbdnFv0TftcdTAwMTV2/H9ccsO27Z3sXtEt59P193hFO18q2EW4XHUwMDEyjfftZnK5Ve+k9ulwOeFij7Z9x8aVzaTteNBZ8KV7+3mn5F9tXFw/6lx1MDAxNuydjFe7LqgxXG7fwsJsunZj3m/YVLRcdTAwMGadWf/O5Mu5XFz9cCafdvzrPWqjlm/Lp6++7fquNm5cdTAwMTm9OvKwYbvj+Fx1MDAxZkylpFx1MDAxOOvGXHUwMDE1bnhcdTAwMTaT7Vx1MDAwN5fcfM3JsGSYXCIstW7YVEqAc3m1z9y1cyWncVx1MDAwM3zDptpcdTAwMWSv2flafMtzjlx1MDAxYnelyTV35ic2XHUwMDEy09NLXHUwMDEzTnlqYeNcdTAwMWVZqm5gNFp/38Or31x1MDAxYVx1MDAxN69cXEjbl/ZgKbkgWlx1MDAxM1x1MDAwMY5Wfz2XyWfbr2zO3ck2hnCn6Yq1XHTFbE2HUFpcdTAwMDZzqVx1MDAxMaUtLYRslUPNXHUwMDFkNLU4XHUwMDA2QztVolCnNshQXHUwMDE0XHUwMDAxosBmUbS8+9r7XHUwMDE5JYoq0eHp/ohIoPtcdTAwMGKNKEO46bRcYu5cdTAwMWanhzZcdTAwMWPOdzRcdTAwMTj8xVx1MDAxN89fv/rs/Pmzs6efNd1GN++tZk5921x0ajl61z7M5Pzrzls+ajyX2cvX/Fx1MDAxY6x2iqPNV8LLXHUwMDAwiupvOMyk081cdTAwMWPYgVx1MDAwZrUzeac4XHUwMDFiXHUwMDA2KG4xs5fJ27lUV/PtsueuOKXLXHUwMDAxeMWy03yFnJlrRWCL8C6SXHUwMDFkX1br3J1OsLG7K3vawZPV44JcdTAwMTOabVxccYspRVQn3ailXHUwMDExaSVYXHUwMDFkb1pZRrAxi12ew7T/o8RQzGYxk4FcdIeRRIgwxalB5Fx1MDAxOHWQr65yrlx1MDAxMcNM4MZ5b1x1MDAxY3KJzcLqYkHmJqfRfWcswdzN3WRcIlx1MDAwMuQwI1x1MDAwNOBCmlx1MDAwNdI/5MzWhICcQMxSglx1MDAxYcSilCVcdTAwMTBccsBcdTAwMWNcdTAwMTZDzkWQXHUwMDA2XHLPOSlcdTAwMTAkXHUwMDFkgpnSPIyDJaCx4lx1MDAxYW5cdTAwMGLvR1x1MDAwMt29VEo1XGLofnrx6qdcdTAwMTfPLnlx9uLpxe//dv7k3+fPXHUwMDFl3Vx1MDAwNuj1IE079HpcdTAwMGYlXHUwMDFlXHUwMDAw4jRJnVx1MDAxZVbs7OnUXFy5MF4+OnX3cFx1MDAwNFx1MDAwMDJLYslcdTAwMTHhmmrNXHUwMDFhTn1SUym3XGL8KMJQLb1tpEZDXHUwMDE2xiV4NjBcdTAwMGJcdIK0VUFcdTAwMWPQzc59XHUwMDFkXGI60+DrQECAoIpA5O4r4+2Phe79wtK8O+Ysz7FcdTAwMDeHqWmHbkx5XHUwMDA3kVhIsUZcYjdrpX9cdTAwMTaarVx0yUKkSZBuXHUwMDA0lIPg/JxcdTAwMTHFXHUwMDAydDOkYlx1MDAxNJHw8FRcdTAwMTRYXCKquDJWf5hcdTAwMDWJXHUwMDAxQ9IoOGZcdTAwMWP3I4Zu/lxuQVx1MDAxMIlcYv5cdTAwMWFAxfNPPzz/87fnX3x7/vlcdTAwMWZcdTAwMDEo50/+c1x1MDAxYqjYXHUwMDAzP2Yqdlx1MDAxYko8VJRuOVt1XHUwMDBl16s0MbNYffDgILXKy+GpqInFhUaCI4O6KSNcdTAwMTaWmmIq+JCKb0jwYmAqcs600EKZsmPCg2dBXHSUlYKT/rLj/qCIvdP1g9R6ObeN58am5lUycXfLiVx1MDAwNkWIMSimXHUwMDAy0WxNXHUwMDE4KFJsacaCZMOFpVx1MDAxNIKSndMgKJIhXHUwMDE0I2hEhodcIkdcdTAwMWPKdo1NUKREXHUwMDA0ilx1MDAwMYJcdTAwMWNFkrK+llx1MDAwNLr5K/hcdTAwMDCPksRcdTAwMDWXiueP/nnx5eP//uXr24DDXHUwMDFl3Fx0LFx1MDAxMlxyg4hcdTAwMDeE60WS50t897C0cny0kFxcsY/GkiRcdTAwMDJcYoVcdTAwMDVlXHUwMDA1oNCkaEYhzeVEcoyHIHxTXCJXXHUwMDAzg1AhpChcdTAwMDfxm7SPXHUwMDAzta+V0kL2mVx1MDAwZvfHwe3lsaraT+pE1s6MbeOp9HzyLonGQYFQ0zVcdTAwMWaIg2ZrQnGQW1xuXHUwMDE4XHUwMDE3oFx1MDAxYfB9wSnUh2jIwVgkosNzXHUwMDEwym6tqGbKtGzAUHBW6M+wKFx1MDAwMVx1MDAxMI1cdTAwMWKEQtImXHUwMDBm6Gdx8OXHZ4+fXFxcdTAwMTVWt2aJsFx1MDAwN3c6llxiu1xmXCJcdTAwMWVcdTAwMTCeXHUwMDFlZNy9XHUwMDE1deDOLbHy0rg9W6luXHUwMDFhpnqCmmAosyCCws1cdTAwMTJcdTAwMDJcdTAwMTGpaMP9a07MlIW1IIpcdTAwMTMmld/60qFpgrCFkGxZPKlrm1xubSEhIHV+W1Setkv7zs3KfHxgXHUwMDEyQlwiK4mS5iVD1H60kVx1MDAwNGtcbnlKc3RcdTAwMTiYhJc+uYHzq/nM+Kkq5sfnnezu3kF1fbNcdTAwMTWM135pXHUwMDE3i241XHUwMDAyXG5cdTAwMDEuSDJcdTAwMWNl3qmLeI7x8VZycbG4p2YmVtNZMVt6kM6Fz1wiXHUwMDE5slx1MDAxNOLg5FRKTEWbdiCL5Fx1MDAxOKpCpODmmLUjlWWUjaJcdTAwMTbibaJcdTAwMWHKZqRFNlx1MDAxM4OvtWPMmKBUm9ZcdTAwMTdY8Iyq0lx1MDAxMNPg1Nukm3e6fe6hS3cr81x1MDAwYktcdTAwMDU7VdpOXHUwMDFkyfXS4cJ8bHrEgIYoq6Nd9Ii9lenKhJbVg7nU2vhatiqLxWJ4mHFtKa0wRVxuXHUwMDE0iZpcdTAwMDRXy0+Jr1bNXHUwMDAxRzqAZd37O5tWNm61XHUwMDE2bz5RnVx1MDAxY1iKUDxIf83ONKmpg1vbiD89XGI39lx1MDAwNmu5o8ndyfz4jKumTlx1MDAxZaD1uWXmLc5cdTAwMWZFXHUwMDEyXGZcdTAwMDJgsJhcdTAwMDBmtiZELUcktjTGvlx1MDAwZYQyaIX31IqpluNDiVx1MDAwNEgkYZaIsZaTWnNcYkXIhKWmSNvRXHUwMDAxhrmmXGbxePs8fYH5s1mDlHJnjz4+f/qHy/rnN/mff3z0368/Pvvqq8tcdTAwMDM///jJbSjseqCnvbBcdTAwMGI/pHjKvH2cSlKcymb1/Hp2sjKRWC1vnIQmo9aspmeuqMZcXLZO3GBFLFx1MDAxNdDkRjCcXGJhVl//NJxryMWeop9cdTAwMWV8sVx1MDAwZlx1MDAxM8hktHFaXHUwMDA3y0AwUkYgR1X9hYL+uLi2urDssKmkqMxtL6+mJ9yiflCJxEUssFBR4kxcdTAwMTe5mK1cdMFFjCixXGLmXG6ZpVwiXHUwMDAzpYLZXHUwMDEwiFx1MDAxMbQxXHUwMDEzofOFMs1cdTAwMTBcdTAwMGLofFx0XuTj/j9wqnhcdTAwMTf5Llx1MDAxZFVcdTAwMGa0yHf+9Pvzp787+9OrXHUwMDFhOi6+eH72+CP466dnzy+++eGWXHUwMDAwsVx1MDAwN3HagVx1MDAxOH5I8Vx1MDAwMHF+VjvljZV7m1x1MDAwN/tcInHM7eTWRH4qXHUwMDAyXHUwMDEwiYUp4URLyrngrVM3RDB/K1x1MDAxZkfBXHUwMDBigFx1MDAxMFwiLH29yte60DdcdTAwMDRjT/HPXHUwMDBlPuXJoND3b40pJvDAJFkyRTRj8lx1MDAwNndJ7OutxY2ZrUrxbnE5WVx1MDAxOZug2t2g0cBcYqEvriZcdTAwMTizNaHASJCFXHUwMDExJvJKMp2toT0kY2xcclx1MDAxZFx1MDAwMjJII3NcdTAwMTG6YCBgQVx1MDAxNc9MWVwi5YFcdTAwMTOZUsGJmuF490uAv0JcdTAwMWSKXHUwMDA22i/RvL2gXHQpr3/45vVcdTAwMGaf3zZQ9iCReddgpLHFQ8zFnc3kdHF2omhnZHFuamcjkSruRCAmsjiSXHUwMDAxxKRcdTAwMWNZgoErycBcdTAwMWRcdTAwMTV+KYmUVvXemGEpXHUwMDE5IVx1MDAxYczHQUyEIG0xtsvQwFx1MDAwZVx1MDAwMSpcdTAwMTRcdTAwMTM3XG7Mk8N0dl0m9cLWXHUwMDA0Tblj949XNo9OI1aSUP3GtHfebE04YEqLc8I41Fx1MDAwYsigXHUwMDE43ksxw4oykkRcdTAwMTbCXHUwMDAzkyCIZJSrzs2Eo/7kd/DOXCLMmJ+Mxdwu4z+dgmo50Fx1MDAxY+vF319e0+TsxePzL7/7+cfHXHUwMDE3/3h18ezFLcFkXHUwMDBm/HRgMtx44kHj/cwsk9nFxKzYyk3P2NLenpEsXHUwMDAyXHUwMDFhsUWp5n5cdTAwMGZWJ1x1MDAxYVx1MDAxOdNcdTAwMTbVPdCILVxce3bMVT3ZcK8hXHUwMDFhe+p+cfBGXHUwMDAwoSin0vhgjeYutnY0Sqj7peA3uKOigok7/lx1MDAwMKFSjk7NraGJvU1cXI62+og1XHUwMDA0m5jYaLYmXHUwMDA0XHUwMDFitVx1MDAxNrWVes5MyaTfSdpLMWiIxlxiXHUwMDEyWVxuj0Yt4Yqrzqcp+de3c5tFXHUwMDFkjEpiKEJp7FOtUb21g4tnXHUwMDFmff/65ZPLKuvT788//C1QXHUwMDA1UHL+3cuzT5/D71x1MDAxN3/95JZcdTAwMDCyXHUwMDA3hDpWICNcdTAwMGUspn1cdTAwMTfc3du+n9hcXExubVYrs+nNMT5cdTAwMTVhXHUwMDFkXHUwMDEyykQqXHTomlx1MDAxOLpcdTAwMGX8blMmpFx1MDAxNFqQ//+OOdfzbrhj7t7AoISoTDnGxokmXHUwMDE1OM9EpIYkiJBcdTAwMThryJvqa4tpOfJuadJO6CNaSVx1MDAxZVx1MDAxNDbzzv1ltLUxXHUwMDE5XHUwMDA2lEJSXHUwMDBiWKdcdTAwMDCRXHUwMDA2wVxiXHUwMDA1aSMjnOqgLp3hbvwoXHUwMDAyWVxyj0mpKcFCm1tHXHUwMDAzlyRcdTAwMDVcdTAwMDRAzjWLe8aVgI80bezte9vh2b9ieSRNztn1unDQc1x1MDAwYkFcdTAwMTBsMdm8q7DFxpigtji/uk/mVlecpWzl/r387lxmXHUwMDA1j1xiIU+MJLFcdTAwMTih3J9X69Sn4lx1MDAxNsFaXHUwMDEyXHUwMDAwXoA+3+ZnJf5cdTAwMDJcdTAwMDRLRVhcdTAwMTNcdTAwMTFcZlRcdTAwMTGwJtKlo1RcdTAwMTDIPnjsPVx1MDAwM4RxhVx1MDAwNkpk495cdPVGRfpm9jqlxu6tbKfShbxOXHUwMDFkXHUwMDFmLmzZ61soz8PolGJkcaZcdTAwMDJkKqFcdTAwMThcdTAwMTVcblx1MDAwYlx1MDAxNLjJ6W2W6c1jdC1CryvTWFxuhJGxwY110PVap1x1MDAxYyjKKZdx97pcdTAwMTKFKY2t1/VcdTAwMTbL1GxmPDLtvo2lLSVv0Slj1H+WXHUwMDA258audP9cdTAwMDE1mrJuXel+W1x1MDAwZvH355iKRGxhRbmmb8tcdTAwMTO6f4FNVethS0RydaRzLlx1MDAxNYpcdTAwMTGkODZvy1x1MDAwZn54o/9QXHUwMDFipKSMOzWOvF2wfrjgZtpr0MZvI1xyl6n9Uf/9/XeM7zY4pv8z1vDJxifcafuk0Zxd8ibdw8OMn3At+2Z1hFPPLnpcdTAwMTNwXHUwMDFmM/m91vt19Vx1MDAxMP3ZXHUwMDEwm4VrXHUwMDExaafsXHUwMDBmXHUwMDE5WWApg1x1MDAxOMu50lSoxmqq71t2wWeixVx1MDAxNUZCXGKkXHUwMDE4jIzzXHUwMDBlj3Dy6d4mdd+C2WTSXHUwMDE42Fx1MDAwNElcdTAwMTQhXGZrXHUwMDA2yZ1EmndcdTAwMTjFLKm5XHUwMDA2nPAgo2pXatxcdTAwMGY9+47doVx1MDAwNDC5+bX2XHUwMDE45eS23Wqoir/71ES3XHUwMDE4qFxisvzOY6SRIVehXHUwMDE0W6L7jmzIYS3IZpg5XGL6XVx1MDAxY1RcdTAwMGY3ZHdcdIJcdTAwMWKDXHUwMDA3QVx1MDAxMLXkXHUwMDE0XHUwMDBiU1x1MDAxMGSB3YnKb0jVKvaGrMhTWW8mXHUwMDA2mlx1MDAxY9P/XHUwMDE5a/jkTVx1MDAwNMHQXHUwMDExXHUwMDA3XHUwMDAyXHUwMDBlXHUwMDEy1O945P7DXHUwMDBlOeJNJKmHXHUwMDFjXGbFXHUwMDAzgqRR+Fx1MDAwYlZcdTAwMThCVH9xsPvEeqtVTEnuP2LDn4FcdTAwMDI/w1x1MDAxZDZcdTAwMTHr8irfQPS7c3WPRu1CYdVcdTAwMDO/q49cdTAwMTHkl0m3Jb2Xxzyn0Eh4a4dcdTAwMTbdtDOVt7dz7T44Wsk41Ynu4ebO1Vxi/XDj1JT68M7D/1x1MDAwMYznaugifQ==<!-- payload-end --></metadata><defs><style class="style-fonts">
      @font-face { font-family: Xiaolai; src: url(https://esm.sh/@excalidraw/excalidraw@0.18.0/dist/prod/fonts/Xiaolai/Xiaolai-Regular-09850c4077f3fffe707905872e0e2460.woff2); }
      @font-face { font-family: Xiaolai; src: url(https://esm.sh/@excalidraw/excalidraw@0.18.0/dist/prod/fonts/Xiaolai/Xiaolai-Regular-87599f94b6cc129d505b375798d0d751.woff2); }
      @font-face { font-family: Xiaolai; src: url(https://esm.sh/@excalidraw/excalidraw@0.18.0/dist/prod/fonts/Xiaolai/Xiaolai-Regular-0facdf1ea213ba40261022f5d5ed4493.woff2); }
      @font-face { font-family: Xiaolai; src: url(https://esm.sh/@excalidraw/excalidraw@0.18.0/dist/prod/fonts/Xiaolai/Xiaolai-Regular-f8ee5d36068a42b51d0e4a1116cfcec1.woff2); }
      @font-face { font-family: Xiaolai; src: url(https://esm.sh/@excalidraw/excalidraw@0.18.0/dist/prod/fonts/Xiaolai/Xiaolai-Regular-79d494361ae093b69e74ee9dbe65bfd4.woff2); }
      @font-face { font-family: Xiaolai; src: url(https://esm.sh/@excalidraw/excalidraw@0.18.0/dist/prod/fonts/Xiaolai/Xiaolai-Regular-74e2263a91439c25b91d5132ce9f4d62.woff2); }
      @font-face { font-family: Xiaolai; src: url(https://esm.sh/@excalidraw/excalidraw@0.18.0/dist/prod/fonts/Xiaolai/Xiaolai-Regular-145aa02cdd91946e67dc934e1acffe75.woff2); }</style></defs><rect x="0" y="0" width="1054.331066608429" height="523.404296875" fill="transparent"/><g stroke-linecap="round" transform="translate(53.66145133972168 140.31543350219727) rotate(0 72.013671875 27.5859375)"><path d="M13.79 0 C38.17 -0.2, 64.05 2.37, 130.23 0 M13.79 0 C49.56 0.21, 86.12 -1.3, 130.23 0 M130.23 0 C137.72 -0.58, 143.21 6.21, 144.03 13.79 M130.23 0 C138.84 0.71, 145.46 5.79, 144.03 13.79 M144.03 13.79 C143.41 21.08, 144.6 33.72, 144.03 41.38 M144.03 13.79 C143.86 22.96, 144.51 31.8, 144.03 41.38 M144.03 41.38 C143.45 52.03, 141.26 56.89, 130.23 55.17 M144.03 41.38 C144.66 49.01, 138.57 56.5, 130.23 55.17 M130.23 55.17 C98.04 55.54, 69.17 55.75, 13.79 55.17 M130.23 55.17 C87.18 54.74, 42.19 53.71, 13.79 55.17 M13.79 55.17 C5.19 54.15, 0.33 49.6, 0 41.38 M13.79 55.17 C6.02 55.51, 2.09 52.69, 0 41.38 M0 41.38 C1.53 31.33, 0.05 25.6, 0 13.79 M0 41.38 C-0.29 36.33, -0.69 28.64, 0 13.79 M0 13.79 C1.69 4.76, 6.07 -0.96, 13.79 0 M0 13.79 C-1.93 2.66, 5.45 -1.15, 13.79 0" stroke="#1e1e1e" stroke-width="2" fill="none"/></g><g transform="translate(85.67512321472168 155.40137100219727) rotate(0 40 12.5)"><text x="40" y="17.619999999999997" font-family="Excalifont, Xiaolai, Segoe UI Emoji" font-size="20px" fill="#1e1e1e" text-anchor="middle" style="white-space: pre;" direction="ltr" dominant-baseline="alphabetic">用例模型</text></g><g stroke-linecap="round" transform="translate(381.1966075897217 135.78808975219727) rotate(0 99.375 27.201171875)"><path d="M13.6 0 C79.14 -3.2, 149.11 -1.42, 185.15 0 M13.6 0 C76.88 1.81, 141.34 1.49, 185.15 0 M185.15 0 C194.39 -0.71, 200.03 3.98, 198.75 13.6 M185.15 0 C192.43 0.71, 197.35 5.06, 198.75 13.6 M198.75 13.6 C199.49 22.04, 199.59 32.02, 198.75 40.8 M198.75 13.6 C199.51 18.85, 198.72 24.38, 198.75 40.8 M198.75 40.8 C197.92 48.84, 194.33 52.41, 185.15 54.4 M198.75 40.8 C197.09 51.78, 193.21 52.79, 185.15 54.4 M185.15 54.4 C124.44 54.54, 63.55 53.4, 13.6 54.4 M185.15 54.4 C117.7 53.06, 52.04 52.5, 13.6 54.4 M13.6 54.4 C4.9 55.83, -0.35 50.42, 0 40.8 M13.6 54.4 C6.4 53.24, 0.29 51.72, 0 40.8 M0 40.8 C-1.48 28.56, 0.47 21.2, 0 13.6 M0 40.8 C0.38 30.33, 0.57 21.39, 0 13.6 M0 13.6 C-1.06 6.37, 4.6 -0.45, 13.6 0 M0 13.6 C0.89 6.18, 2.43 -0.33, 13.6 0" stroke="#1e1e1e" stroke-width="2" fill="none"/></g><g transform="translate(400.5716075897217 150.48926162719727) rotate(0 80 12.5)"><text x="80" y="17.619999999999997" font-family="Excalifont, Xiaolai, Segoe UI Emoji" font-size="20px" fill="#1e1e1e" text-anchor="middle" style="white-space: pre;" direction="ltr" dominant-baseline="alphabetic">设计用例实现方案</text></g><g stroke-linecap="round" transform="translate(380.4258289337158 217.10802841186523) rotate(0 99.375 27.201171875)"><path d="M13.6 0 C55.94 0.09, 93.08 0.64, 185.15 0 M13.6 0 C67.99 -0.62, 122.96 0.89, 185.15 0 M185.15 0 C193.28 -1.91, 197.64 4.11, 198.75 13.6 M185.15 0 C194.54 -0.1, 197.62 6.73, 198.75 13.6 M198.75 13.6 C197.24 24.01, 198.37 32.02, 198.75 40.8 M198.75 13.6 C199.34 20.18, 198.47 25.24, 198.75 40.8 M198.75 40.8 C199.79 48.81, 192.99 53.85, 185.15 54.4 M198.75 40.8 C199.11 49.85, 194.52 56.11, 185.15 54.4 M185.15 54.4 C127.59 55.62, 71.25 53.57, 13.6 54.4 M185.15 54.4 C148.32 55.84, 112.77 54.76, 13.6 54.4 M13.6 54.4 C5.5 55.77, -1.54 48.68, 0 40.8 M13.6 54.4 C5.7 54.49, 1.45 49.96, 0 40.8 M0 40.8 C0.47 33.85, 0.15 28.21, 0 13.6 M0 40.8 C-0.07 33.86, 0.01 26.05, 0 13.6 M0 13.6 C-0.51 4.7, 5.72 1.09, 13.6 0 M0 13.6 C1.48 4.77, 4.11 0.22, 13.6 0" stroke="#1e1e1e" stroke-width="2" fill="none"/></g><g transform="translate(399.8008289337158 231.80920028686523) rotate(0 80 12.5)"><text x="80" y="17.619999999999997" font-family="Excalifont, Xiaolai, Segoe UI Emoji" font-size="20px" fill="#1e1e1e" text-anchor="middle" style="white-space: pre;" direction="ltr" dominant-baseline="alphabetic">设计技术支撑实施</text></g><g stroke-linecap="round" transform="translate(388.2773914337158 304.06505966186523) rotate(0 99.375 27.201171875)"><path d="M13.6 0 C69.11 -2.35, 122.67 -0.86, 185.15 0 M13.6 0 C78.41 0.4, 145.49 0.46, 185.15 0 M185.15 0 C195.65 1.32, 197.39 4.99, 198.75 13.6 M185.15 0 C195.64 2.06, 196.53 4.77, 198.75 13.6 M198.75 13.6 C197.27 20.03, 199.26 27.23, 198.75 40.8 M198.75 13.6 C199.43 20.8, 198.87 27.6, 198.75 40.8 M198.75 40.8 C200.34 51.45, 195.58 54.69, 185.15 54.4 M198.75 40.8 C199.57 47.99, 192.33 53.65, 185.15 54.4 M185.15 54.4 C124.43 51.74, 68.8 51.77, 13.6 54.4 M185.15 54.4 C147 55.06, 110.22 54.77, 13.6 54.4 M13.6 54.4 C5.04 53.34, -1.91 50.99, 0 40.8 M13.6 54.4 C6.05 55.35, -1.59 49.17, 0 40.8 M0 40.8 C-1.18 31.59, 0.36 26.37, 0 13.6 M0 40.8 C0.55 30.93, 0.76 20.06, 0 13.6 M0 13.6 C0.44 5.85, 6.01 0.79, 13.6 0 M0 13.6 C-2.27 4.48, 2.28 1.33, 13.6 0" stroke="#1e1e1e" stroke-width="2" fill="none"/></g><g transform="translate(427.6523914337158 318.76623153686523) rotate(0 60 12.5)"><text x="60" y="17.619999999999997" font-family="Excalifont, Xiaolai, Segoe UI Emoji" font-size="20px" fill="#1e1e1e" text-anchor="middle" style="white-space: pre;" direction="ltr" dominant-baseline="alphabetic">设计用户界面</text></g><g stroke-linecap="round" transform="translate(392.1680164337158 401.83849716186523) rotate(0 99.375 27.201171875)"><path d="M13.6 0 C50.8 -1.65, 92.22 -3.03, 185.15 0 M13.6 0 C78.95 -0.05, 143.24 0.08, 185.15 0 M185.15 0 C196.08 -0.01, 196.94 4.2, 198.75 13.6 M185.15 0 C195.37 -0.1, 197.31 2.26, 198.75 13.6 M198.75 13.6 C197.35 21.62, 200.68 33.15, 198.75 40.8 M198.75 13.6 C198.46 22.13, 198.93 29.16, 198.75 40.8 M198.75 40.8 C197.33 51.07, 194.85 55.53, 185.15 54.4 M198.75 40.8 C199.48 49.82, 193.16 54.27, 185.15 54.4 M185.15 54.4 C138.27 55.58, 91.52 53.96, 13.6 54.4 M185.15 54.4 C123.03 53.95, 61.25 52.41, 13.6 54.4 M13.6 54.4 C4.67 53.67, -0.16 51.29, 0 40.8 M13.6 54.4 C6.51 56.34, 1.75 48.69, 0 40.8 M0 40.8 C-1.79 29.79, 0.5 18.99, 0 13.6 M0 40.8 C-0.5 33.36, -0.45 27.22, 0 13.6 M0 13.6 C-1.8 5.91, 5.86 1.08, 13.6 0 M0 13.6 C0.77 3.33, 5.06 0.45, 13.6 0" stroke="#1e1e1e" stroke-width="2" fill="none"/></g><g transform="translate(431.5430164337158 416.53966903686523) rotate(0 60 12.5)"><text x="60" y="17.619999999999997" font-family="Excalifont, Xiaolai, Segoe UI Emoji" font-size="20px" fill="#1e1e1e" text-anchor="middle" style="white-space: pre;" direction="ltr" dominant-baseline="alphabetic">细化设计模型</text></g><g stroke-linecap="round" transform="translate(30 110.08203125) rotate(0 100.50390625 184.533203125)"><path d="M32 0 C74.03 0.63, 115.13 -2.16, 169.01 0 M169.01 0 C190.32 0.39, 201.6 11.21, 201.01 32 M201.01 32 C200.45 104.64, 202.51 178.34, 201.01 337.07 M201.01 337.07 C201.98 356.55, 189.85 367.18, 169.01 369.07 M169.01 369.07 C123.75 368.29, 78.68 368.23, 32 369.07 M32 369.07 C11.02 367.95, -1.45 357.64, 0 337.07 M0 337.07 C2.6 275.57, 2.52 212.12, 0 32 M0 32 C-0.06 10.15, 12.36 0.56, 32 0" stroke="#1e1e1e" stroke-width="2.5" fill="none" stroke-dasharray="8 10"/></g><g stroke-linecap="round" transform="translate(336.5136957168579 101.404296875) rotate(0 139.125 191.525390625)"><path d="M32 0 C110.52 -1.32, 188.27 -0.45, 246.25 0 M246.25 0 C267.13 -0.86, 279.93 12.25, 278.25 32 M278.25 32 C279.52 147.29, 281.02 265.66, 278.25 351.05 M278.25 351.05 C279.51 372.97, 267.51 381.15, 246.25 383.05 M246.25 383.05 C164.28 383.4, 85.08 381.24, 32 383.05 M32 383.05 C10.69 382.17, 0.67 372.18, 0 351.05 M0 351.05 C-0.39 237.55, -0.11 121.77, 0 32 M0 32 C-0.46 9.46, 8.68 0.32, 32 0" stroke="#1e1e1e" stroke-width="2.5" fill="none" stroke-dasharray="8 10"/></g><g stroke-linecap="round" transform="translate(55.606457233428955 382.6953125) rotate(0 72.013671875 30)"><path d="M15 0 C46.08 -0.58, 75.18 1.11, 129.03 0 M15 0 C41.16 1.07, 69.89 0.14, 129.03 0 M129.03 0 C138.79 0.74, 144.81 3.81, 144.03 15 M129.03 0 C136.87 -0.3, 143.21 4.9, 144.03 15 M144.03 15 C142.59 26.12, 145.47 37.16, 144.03 45 M144.03 15 C143.46 25.74, 143.81 35.88, 144.03 45 M144.03 45 C144.97 53.31, 138.79 58.19, 129.03 60 M144.03 45 C143.84 56.43, 139.83 61.73, 129.03 60 M129.03 60 C102.95 57.83, 73.67 59, 15 60 M129.03 60 C103.74 58.81, 77.51 60.11, 15 60 M15 60 C6.64 60.58, -0.06 55.55, 0 45 M15 60 C2.72 61.89, 0.58 54.36, 0 45 M0 45 C-0.91 39.79, -0.55 31.34, 0 15 M0 45 C1 38.07, -0.59 31.52, 0 15 M0 15 C-0.79 4.81, 5.61 -1.39, 15 0 M0 15 C-0.46 4.32, 6.11 1.52, 15 0" stroke="#1e1e1e" stroke-width="2" fill="none"/></g><g transform="translate(67.62012910842896 387.6953125) rotate(0 60 25)"><text x="60" y="17.619999999999997" font-family="Excalifont, Xiaolai, Segoe UI Emoji" font-size="20px" fill="#1e1e1e" text-anchor="middle" style="white-space: pre;" direction="ltr" dominant-baseline="alphabetic">分析模型</text><text x="60" y="42.62" font-family="Excalifont, Xiaolai, Segoe UI Emoji" font-size="20px" fill="#1e1e1e" text-anchor="middle" style="white-space: pre;" direction="ltr" dominant-baseline="alphabetic">（领域模型）</text></g><g stroke-linecap="round" transform="translate(790.5178847312927 144.73730850219727) rotate(0 107.40625 30)"><path d="M15 0 C52.92 0.61, 91.02 3.01, 199.81 0 M15 0 C64.38 -2.45, 114.2 -2.52, 199.81 0 M199.81 0 C209.3 -1.27, 213.61 4.25, 214.81 15 M199.81 0 C208.93 0.53, 215.53 2.82, 214.81 15 M214.81 15 C214.71 25.47, 215.71 30.32, 214.81 45 M214.81 15 C215.33 25.5, 215.71 35.27, 214.81 45 M214.81 45 C216.31 55.26, 209.77 59, 199.81 60 M214.81 45 C214.16 53.98, 209.02 60.71, 199.81 60 M199.81 60 C128.28 58.81, 55.72 57.26, 15 60 M199.81 60 C148.46 60.24, 97.13 60.65, 15 60 M15 60 C3.73 61.1, -1.6 53.65, 0 45 M15 60 C4.89 58.4, 0.16 53.07, 0 45 M0 45 C-0.94 37.79, 1.51 32.31, 0 15 M0 45 C0.18 36.12, -0.48 27.51, 0 15 M0 15 C1.14 6.91, 3.96 -0.92, 15 0 M0 15 C-0.36 6.95, 6.93 -0.54, 15 0" stroke="#1e1e1e" stroke-width="2" fill="none"/></g><g transform="translate(827.9241347312927 149.73730850219727) rotate(0 70 25)"><text x="70" y="17.619999999999997" font-family="Excalifont, Xiaolai, Segoe UI Emoji" font-size="20px" fill="#1e1e1e" text-anchor="middle" style="white-space: pre;" direction="ltr" dominant-baseline="alphabetic">架构图</text><text x="70" y="42.62" font-family="Excalifont, Xiaolai, Segoe UI Emoji" font-size="20px" fill="#1e1e1e" text-anchor="middle" style="white-space: pre;" direction="ltr" dominant-baseline="alphabetic">（用包图表示）</text></g><g stroke-linecap="round" transform="translate(787.8408560752869 226.05724716186523) rotate(0 107.96874999999989 30)"><path d="M15 0 C63.9 -3.51, 115.76 -2.56, 200.94 0 M15 0 C54.85 1.06, 94.61 1.32, 200.94 0 M200.94 0 C210.17 0.46, 216.56 3.11, 215.94 15 M200.94 0 C210.66 -1.72, 215.74 5.14, 215.94 15 M215.94 15 C217.02 26.19, 215.86 39.66, 215.94 45 M215.94 15 C216.98 24.54, 216.21 33.33, 215.94 45 M215.94 45 C215.37 54.11, 210.25 60.62, 200.94 60 M215.94 45 C217.97 56.5, 210 60.32, 200.94 60 M200.94 60 C148.71 56.3, 98.15 57.69, 15 60 M200.94 60 C152.5 60.53, 104.53 59.3, 15 60 M15 60 C4.9 58.61, 0.14 53.33, 0 45 M15 60 C3.4 57.82, -1.37 53.59, 0 45 M0 45 C-0.18 35.75, -1.35 28.05, 0 15 M0 45 C0.74 36.61, -0.34 25.84, 0 15 M0 15 C-0.31 6.7, 6.68 -0.47, 15 0 M0 15 C-0.38 5.54, 5.27 -2.17, 15 0" stroke="#1e1e1e" stroke-width="2" fill="none"/></g><g transform="translate(815.8096060752868 231.05724716186523) rotate(0 80.00000000000006 25)"><text x="80" y="17.619999999999997" font-family="Excalifont, Xiaolai, Segoe UI Emoji" font-size="20px" fill="#1e1e1e" text-anchor="middle" style="white-space: pre;" direction="ltr" dominant-baseline="alphabetic">用例实现图</text><text x="80" y="42.62" font-family="Excalifont, Xiaolai, Segoe UI Emoji" font-size="20px" fill="#1e1e1e" text-anchor="middle" style="white-space: pre;" direction="ltr" dominant-baseline="alphabetic">（用交互图表示）</text></g><g stroke-linecap="round" transform="translate(786.2158560752869 312.52990341186523) rotate(0 107.044921875 30)"><path d="M15 0 C50.96 -0.14, 88.47 0.36, 199.09 0 M15 0 C58.2 0.92, 102.47 -0.26, 199.09 0 M199.09 0 C208.85 -1.49, 213.91 5.13, 214.09 15 M199.09 0 C211.19 1.29, 211.83 6.05, 214.09 15 M214.09 15 C214.33 25.14, 213.13 32.85, 214.09 45 M214.09 15 C213.8 23.94, 213.74 34.08, 214.09 45 M214.09 45 C215.86 56.31, 208.27 60.28, 199.09 60 M214.09 45 C213.59 54.47, 206.81 59.46, 199.09 60 M199.09 60 C160.05 58.7, 122.7 58.3, 15 60 M199.09 60 C133.7 58.07, 68.48 57.92, 15 60 M15 60 C3.61 58.11, -1.19 53.77, 0 45 M15 60 C4.65 61.41, 1.31 55, 0 45 M0 45 C0.41 35.87, 1.19 30.23, 0 15 M0 45 C0 33.98, 1 21.03, 0 15 M0 15 C-0.33 5.47, 5.24 -1.89, 15 0 M0 15 C-0.89 6.52, 6.34 2.06, 15 0" stroke="#1e1e1e" stroke-width="2" fill="none"/></g><g transform="translate(823.2607779502869 317.52990341186523) rotate(0 70 25)"><text x="70" y="17.619999999999997" font-family="Excalifont, Xiaolai, Segoe UI Emoji" font-size="20px" fill="#1e1e1e" text-anchor="middle" style="white-space: pre;" direction="ltr" dominant-baseline="alphabetic">类图</text><text x="70" y="42.62" font-family="Excalifont, Xiaolai, Segoe UI Emoji" font-size="20px" fill="#1e1e1e" text-anchor="middle" style="white-space: pre;" direction="ltr" dominant-baseline="alphabetic">（完整，精确）</text></g><g stroke-linecap="round" transform="translate(787.0478873252869 411.27990341186523) rotate(0 105.55859375 30)"><path d="M15 0 C58.84 -0.74, 104.46 -0.3, 196.12 0 M15 0 C73.38 0.97, 131.9 1.78, 196.12 0 M196.12 0 C207.94 1.12, 209.15 5.91, 211.12 15 M196.12 0 C205.49 -0.29, 212.49 5.32, 211.12 15 M211.12 15 C211.24 26.91, 209.98 38.33, 211.12 45 M211.12 15 C211.9 23.32, 210.61 30.47, 211.12 45 M211.12 45 C210.68 54.54, 204.13 59.53, 196.12 60 M211.12 45 C208.99 55.83, 205.58 59.01, 196.12 60 M196.12 60 C150.78 57.25, 101.89 58.75, 15 60 M196.12 60 C153.66 57.54, 112 57.87, 15 60 M15 60 C4.7 61.23, 1.14 55, 0 45 M15 60 C4.2 58.66, 0.17 55.27, 0 45 M0 45 C1.76 36.72, -1.08 30.22, 0 15 M0 45 C-0.42 33.69, -0.13 20.96, 0 15 M0 15 C-0.78 6.32, 6.17 1.79, 15 0 M0 15 C0.88 4.52, 3.03 -1.46, 15 0" stroke="#1e1e1e" stroke-width="2" fill="none"/></g><g transform="translate(792.6064810752869 416.27990341186523) rotate(0 100 25)"><text x="100" y="17.619999999999997" font-family="Excalifont, Xiaolai, Segoe UI Emoji" font-size="20px" fill="#1e1e1e" text-anchor="middle" style="white-space: pre;" direction="ltr" dominant-baseline="alphabetic">其他</text><text x="100" y="42.62" font-family="Excalifont, Xiaolai, Segoe UI Emoji" font-size="20px" fill="#1e1e1e" text-anchor="middle" style="white-space: pre;" direction="ltr" dominant-baseline="alphabetic">（状态图，活动图等）</text></g><g stroke-linecap="round" transform="translate(746.081066608429 110.353515625) rotate(0 139.125 191.525390625)"><path d="M32 0 C83.81 1.27, 133.16 0.51, 246.25 0 M246.25 0 C266.09 -0.18, 278.38 12.49, 278.25 32 M278.25 32 C275.67 145.39, 276.89 259.32, 278.25 351.05 M278.25 351.05 C280.21 371.46, 269.08 383.31, 246.25 383.05 M246.25 383.05 C181.64 381.91, 119.13 384.07, 32 383.05 M32 383.05 C11.97 382.24, 0.28 371.95, 0 351.05 M0 351.05 C0.92 263.17, 1.89 173.68, 0 32 M0 32 C-0.87 10.64, 9.4 1.1, 32 0" stroke="#1e1e1e" stroke-width="2.5" fill="none" stroke-dasharray="1.5 8"/></g><g transform="translate(468.90919160842896 30) rotate(0 30 12.5)"><text x="0" y="17.619999999999997" font-family="Excalifont, Xiaolai, Segoe UI Emoji" font-size="20px" fill="#1e1e1e" text-anchor="start" style="white-space: pre;" direction="ltr" dominant-baseline="alphabetic">设计师</text></g><g transform="translate(868.131847858429 47.10546875) rotate(0 40 12.5)"><text x="0" y="17.619999999999997" font-family="Excalifont, Xiaolai, Segoe UI Emoji" font-size="20px" fill="#1e1e1e" text-anchor="start" style="white-space: pre;" direction="ltr" dominant-baseline="alphabetic">设计模型</text></g><g transform="translate(106.25684785842896 38.75390625) rotate(0 40 12.5)"><text x="0" y="17.619999999999997" font-family="Excalifont, Xiaolai, Segoe UI Emoji" font-size="20px" fill="#1e1e1e" text-anchor="start" style="white-space: pre;" direction="ltr" dominant-baseline="alphabetic">分析模型</text></g><g stroke-linecap="round"><g transform="translate(239.58887910842896 304.8203125) rotate(0 46.064453125 -0.591796875)"><path d="M1.14 -0.91 C16.52 -1.13, 77.23 -1.12, 92.4 -0.97" stroke="#1e1e1e" stroke-width="2.5" fill="none" stroke-dasharray="8 10"/></g><g transform="translate(239.58887910842896 304.8203125) rotate(0 46.064453125 -0.591796875)"><path d="M68.87 7.48 C74.62 5.1, 83.76 2.05, 92.4 -0.97" stroke="#1e1e1e" stroke-width="2.5" fill="none"/></g><g transform="translate(239.58887910842896 304.8203125) rotate(0 46.064453125 -0.591796875)"><path d="M68.94 -9.62 C74.71 -6.71, 83.84 -4.46, 92.4 -0.97" stroke="#1e1e1e" stroke-width="2.5" fill="none"/></g></g><mask/><g stroke-linecap="round"><g transform="translate(616.624035358429 293.58203125) rotate(0 63.408203125 -0.251953125)"><path d="M0.05 0.03 C21.14 -0.17, 105.07 -0.12, 126.14 -0.3" stroke="#1e1e1e" stroke-width="2.5" fill="none" stroke-dasharray="8 10"/></g><g transform="translate(616.624035358429 293.58203125) rotate(0 63.408203125 -0.251953125)"><path d="M102.68 8.33 C108.89 4.9, 115.41 3.17, 126.14 -0.3" stroke="#1e1e1e" stroke-width="2.5" fill="none"/></g><g transform="translate(616.624035358429 293.58203125) rotate(0 63.408203125 -0.251953125)"><path d="M102.62 -8.77 C108.97 -7.66, 115.51 -4.85, 126.14 -0.3" stroke="#1e1e1e" stroke-width="2.5" fill="none"/></g></g><mask/></svg>